<svg xmlns="http://www.w3.org/2000/svg" xmlns:xlink="http://www.w3.org/1999/xlink" viewBox="0 0 96.82 96.82"><defs><style>.a{stroke:#131313;stroke-width:2px;fill:url(#a);}.a,.b{stroke-miterlimit:10;}.b{fill:#131313;stroke:#00080c;}.c{fill:url(#b);}.d{fill:url(#c);}.e{fill:url(#d);}</style><linearGradient id="a" x1="1" y1="48.41" x2="95.82" y2="48.41" gradientUnits="userSpaceOnUse"><stop offset="0" stop-color="#ffe53b"/><stop offset="1" stop-color="#ff2525"/></linearGradient><linearGradient id="b" x1="17.87" y1="48.84" x2="74.45" y2="48.84" xlink:href="#a"/><linearGradient id="c" x1="31.23" y1="56.25" x2="53.38" y2="56.25" xlink:href="#a"/><linearGradient id="d" x1="40.59" y1="67.06" x2="47.67" y2="67.06" xlink:href="#a"/></defs><title>telegram_grn</title><circle class="a" cx="48.41" cy="48.41" r="47.41"/><circle class="b" cx="48.41" cy="48.41" r="40.68"/><path class="c" d="M73.58,26.22a3.7,3.7,0,0,0-2.92-1.31,5.85,5.85,0,0,0-2,.4L20.73,43.6c-2.54,1-2.88,2.42-2.86,3.2s.45,2.22,3,3l.05,0,6.71,1.92L60.39,35.07a1.66,1.66,0,0,1,2.23.72,1.68,1.68,0,0,1-.27,1.89h0L44.16,57l-.52,2.1,6.49,5.23,9,7.25,0,0a5.18,5.18,0,0,0,3.13,1.17c2.06,0,3.7-1.53,4.18-3.89l7.85-38.75A4.63,4.63,0,0,0,73.58,26.22Z"/><path class="d" d="M41,55.79a1.65,1.65,0,0,1,.41-.74L53.38,42.37,31.23,53.68l5,14.39a5.88,5.88,0,0,0,1.24,2.06L41,55.79Z"/><path class="e" d="M40.59,71.46A5.07,5.07,0,0,0,44,70l3.68-3.39-4.91-4Z"/></svg>