<svg xmlns="http://www.w3.org/2000/svg" xmlns:xlink="http://www.w3.org/1999/xlink" viewBox="0 0 96.82 96.82"><defs><style>.a,.b{stroke:#00080c;stroke-miterlimit:10;}.a{stroke-width:2px;fill:url(#a);}.b{fill:#131313;}.c{fill:url(#b);}</style><linearGradient id="a" x1="1" y1="48.41" x2="95.82" y2="48.41" gradientUnits="userSpaceOnUse"><stop offset="0" stop-color="#ffe53b"/><stop offset="1" stop-color="#ff2525"/></linearGradient><linearGradient id="b" x1="28.59" y1="50.41" x2="74.3" y2="50.41" xlink:href="#a"/></defs><title>twitter_grn</title><circle class="a" cx="48.41" cy="48.41" r="47.41"/><circle class="b" cx="48.41" cy="48.41" r="40.68"/><path class="c" d="M28.59,64.77A26.55,26.55,0,0,0,43,69c17.41,0,27.24-14.7,26.65-27.89a19.31,19.31,0,0,0,4.68-4.86,18.73,18.73,0,0,1-5.38,1.48A9.43,9.43,0,0,0,73,32.52a19.1,19.1,0,0,1-6,2.28,9.38,9.38,0,0,0-16,8.55,26.65,26.65,0,0,1-19.33-9.8,9.39,9.39,0,0,0,2.91,12.52,9.37,9.37,0,0,1-4.25-1.17A9.38,9.38,0,0,0,38,54.21a9.38,9.38,0,0,1-4.23.16,9.38,9.38,0,0,0,8.75,6.52A18.82,18.82,0,0,1,28.59,64.77Z"/></svg>