<svg xmlns="http://www.w3.org/2000/svg" viewBox="0 0 128.63 37.12">
    <g id="Layer_2" data-name="Layer 2">
        <g id="double_case1" data-name="double case1">

            <path
                d="M43.76,8.5h-1.4l-.8-2.4H39l-.7,2.4H37L39.56.4h1.6Zm-2.4-3.4L40.66,3a12.74,12.74,0,0,1-.4-1.5h0c-.1.3-.2.9-.4,1.5l-.7,2.1Z" />
            <path d="M50.26,2.7l-2.2,5.8h-1.3l-2.1-5.8h1.4l1,3.1a8.74,8.74,0,0,1,.4,1.5h0c.1-.4.2-.9.4-1.5l1-3.1Z" />
            <path
                d="M55,8.5l-.1-.7h0a2.15,2.15,0,0,1-1.7.8A1.71,1.71,0,0,1,51.36,7V6.9c0-1.4,1.2-2.2,3.4-2.2V4.6c0-.8-.4-1.1-1.2-1.1a2.35,2.35,0,0,0-1.5.4l-.3-.9a4,4,0,0,1,2-.5,2.1,2.1,0,0,1,2.3,2.4V7a6,6,0,0,0,.1,1.4Zm-.2-2.9c-1.4,0-2.2.3-2.2,1.2a.84.84,0,0,0,.78.9h.12a1.24,1.24,0,0,0,1.3-1.18V5.6Z" />
            <path d="M58.86,1.7a.8.8,0,1,1,.8-.8h0C59.76,1.4,59.36,1.7,58.86,1.7Zm.7,6.8h-1.3V2.7h1.3Z" />
            <path d="M63.16,8.5h-1.3V0h1.3Z" />
            <path
                d="M68.66,8.5l-.1-.7h0a2.15,2.15,0,0,1-1.7.8A1.71,1.71,0,0,1,65.06,7V6.9c0-1.4,1.2-2.2,3.4-2.2V4.6c0-.8-.4-1.1-1.2-1.1a2.35,2.35,0,0,0-1.5.4l-.3-.9a4,4,0,0,1,2-.5,2.1,2.1,0,0,1,2.3,2.4V7a6,6,0,0,0,.1,1.4h-1.2Zm-.2-2.9c-1.4,0-2.1.3-2.1,1.2a.84.84,0,0,0,.78.9h.12a1.24,1.24,0,0,0,1.3-1.18V5.6Z" />
            <path
                d="M75,8.6a1.9,1.9,0,0,1-1.8-1h0l-.1.9H72V0h1.3V3.5h0a2.14,2.14,0,0,1,1.9-1c1.4,0,2.4,1.2,2.4,2.9C77.56,7.3,76.46,8.6,75,8.6Zm-.2-5a1.45,1.45,0,0,0-1.4,1.5h0v1a1.45,1.45,0,0,0,1.4,1.5h0c1,0,1.5-.8,1.5-2S75.66,3.6,74.76,3.6Z" />
            <path d="M80.76,8.5h-1.3V0h1.3Z" />
            <path
                d="M87.76,5.9h-3.9a1.66,1.66,0,0,0,1.59,1.71h.21a4.17,4.17,0,0,0,1.6-.3l.2.9a6,6,0,0,1-2,.4,2.73,2.73,0,0,1-2.9-2.55,2,2,0,0,1,0-.35,2.83,2.83,0,0,1,2.53-3.09h.27c1.5,0,2.4,1.1,2.4,2.8A.45.45,0,0,1,87.76,5.9ZM86.66,5a1.33,1.33,0,0,0-1.13-1.49h-.17A1.52,1.52,0,0,0,84,5Z" />
            <path
                d="M95.66,8.6a2.79,2.79,0,0,1-2.81-2.77,1.77,1.77,0,0,1,0-.23,2.85,2.85,0,0,1,2.57-3.09h.33a2.72,2.72,0,0,1,2.81,2.65,2.08,2.08,0,0,1,0,.35A2.85,2.85,0,0,1,96,8.59Zm0-5.1c-.9,0-1.5.9-1.5,2.1s.6,2.1,1.5,2.1,1.5-.9,1.5-2.1S96.56,3.5,95.66,3.5Z" />
            <path
                d="M105.46,8.5h-1.3V5.2q0-1.5-1.2-1.5a1.34,1.34,0,0,0-1.3,1.38V8.6h-1.3v-6h1.1l.1.9h0a2.12,2.12,0,0,1,1.8-1c1.2,0,2,.9,2,2.5V8.5Z" />
            <path
                d="M114,3.6h-1.4V6.4c0,.7.3,1.1.8,1.1a1.23,1.23,0,0,0,.6-.1v1a3.07,3.07,0,0,1-1,.1c-1,0-1.6-.6-1.6-2V3.6h-.8v-1h.8v-1l1.3-.4V2.6h1.4v1Z" />
            <path
                d="M120.86,8.5h-1.3V5.2c0-1-.4-1.6-1.2-1.6a1.28,1.28,0,0,0-1.3,1.28.48.48,0,0,0,0,.12V8.5h-1.3V0h1.3V3.5h0a2,2,0,0,1,1.7-.9c1.2,0,2,1,2,2.5V8.5Z" />
            <path
                d="M127.46,5.9h-3.9a1.66,1.66,0,0,0,1.59,1.71h.21a4.17,4.17,0,0,0,1.6-.3l.2.9a5.49,5.49,0,0,1-2,.4,2.73,2.73,0,0,1-2.9-2.55,2,2,0,0,1,0-.35,2.83,2.83,0,0,1,2.53-3.09h.27c1.5,0,2.4,1.1,2.4,2.8Zm-1.2-.9a1.33,1.33,0,0,0-1.13-1.49H125a1.52,1.52,0,0,0-1.4,1.5Z" />
            <path
                d="M77.36,22.12a2.86,2.86,0,0,0-2.73,2.24,4.27,4.27,0,0,0-.1.8v2a3.55,3.55,0,0,0,.08.73A2.81,2.81,0,0,0,77.36,30c1.92,0,3.09-1.53,3.09-4C80.45,23.88,79.42,22.12,77.36,22.12Z"
                style="fill:none" />
            <path d="M63.57,21.82c-1.89,0-2.68,1.73-2.82,3h5.36C66.12,23.66,65.63,21.82,63.57,21.82Z"
                style="fill:none" />
            <path
                d="M107.82,22.15a2.89,2.89,0,0,0-2.75,2.28,3.33,3.33,0,0,0-.11.77v1.87a4,4,0,0,0,.09.84,2.77,2.77,0,0,0,2.7,2.15c2,0,3.1-1.62,3.1-4C110.85,23.9,109.8,22.15,107.82,22.15Z"
                style="fill:none" />
            <path
                d="M92.26,17.76H92.2c-.24,1-.5,2.16-.8,3.16l-1.3,4.16h4.34l-1.33-4.15C92.79,19.89,92.51,18.74,92.26,17.76Z"
                style="fill:none" />
            <path
                d="M122.45,22.15a3.11,3.11,0,0,0-2.86,3.05v1.87a3.42,3.42,0,0,0,.08.84,2.8,2.8,0,0,0,2.7,2.15c2,0,3.1-1.62,3.1-4C125.47,23.9,124.42,22.15,122.45,22.15Z"
                style="fill:none" />
            <path
                d="M52.72,22.93c-.44,2.06-.84,4-1.14,5.84h0c-.25-1.82-.61-3.71-1-5.7l-1.67-7.75H45.6l-1.81,7.62c-.49,2.12-1,4.13-1.22,5.89h-.06c-.28-1.66-.68-3.81-1.09-5.86l-1.61-7.65H36.53l4.11,16.85H44l2-7.93a53.82,53.82,0,0,0,1.11-5.34h0a53.77,53.77,0,0,0,1,5.33l1.74,7.94h3.29l4.54-16.85H54.47Z" />
            <path
                d="M63.76,19.72c-3.91,0-6,3.18-6,6.54,0,3.73,2.31,6.17,6.26,6.17a11.11,11.11,0,0,0,4.34-.77l-.46-2.12a9.41,9.41,0,0,1-3.36.56c-2,0-3.67-1-3.75-3.17h8.13A6.6,6.6,0,0,0,69,25.6C69,23,67.72,19.72,63.76,19.72Zm-3,5.07c.14-1.24.93-3,2.82-3,2.06,0,2.55,1.84,2.54,3Z" />
            <path
                d="M78.5,19.72a4.36,4.36,0,0,0-3.89,2h0V14.42H71.49V28.75c0,1.25,0,2.6-.1,3.42H74l.13-1.83h.06A4.16,4.16,0,0,0,78,32.44c2.76,0,5.53-2.17,5.53-6.55C83.59,22.18,81.47,19.72,78.5,19.72ZM77.36,30a2.81,2.81,0,0,1-2.72-2.15,3.55,3.55,0,0,1-.08-.73v-2a4.27,4.27,0,0,1,.1-.8,2.86,2.86,0,0,1,2.7-2.21c2,0,3.06,1.76,3.06,3.9C80.45,28.48,79.28,30,77.36,30Z" />
            <path
                d="M90.36,15.32,85,32.17h3.2l1.44-4.76H95l1.52,4.76h3.31L94.3,15.32Zm-.28,9.76,1.28-4.16c.3-1,.56-2.17.8-3.16h.06c.25,1,.53,2.13.85,3.17l1.33,4.15Z" />
            <path
                d="M108.86,19.72a4.7,4.7,0,0,0-4.17,2.15h0L104.54,20h-2.7c0,1.14.1,2.45.1,4V37.12H105v-6.3h0a4,4,0,0,0,3.42,1.62c2.77,0,5.54-2.11,5.54-6.53C114,22.11,111.65,19.72,108.86,19.72Zm-1.11,10.34a2.77,2.77,0,0,1-2.7-2.15,4,4,0,0,1-.09-.84V25.2a3.33,3.33,0,0,1,.11-.77,2.89,2.89,0,0,1,2.75-2.28c2,0,3,1.75,3,3.9C110.85,28.44,109.7,30.06,107.75,30.06Z" />
            <path
                d="M123.49,19.72a4.7,4.7,0,0,0-4.13,2.15h0L119.2,20h-2.7c.06,1.14.1,2.45.1,4V37.12h3.08v-6.3h0a4,4,0,0,0,3.42,1.62c2.77,0,5.53-2.11,5.53-6.53C128.59,22.11,126.28,19.72,123.49,19.72Zm-1.13,10.34a2.8,2.8,0,0,1-2.7-2.15,3.42,3.42,0,0,1-.08-.84V25.2a3.11,3.11,0,0,1,2.86-3.05c2,0,3,1.75,3,3.9C125.47,28.44,124.36,30.06,122.36,30.06Z" />
            <path
                d="M30.73,2.94l1.52,1.71L12.35,28.26H31.49v2.41H7.05ZM25,2.85,1.53,30.57,0,28.85,19.77,5.26H.77V2.85Z" />
        
       
        </g>
    </g>
</svg>