<svg id="double_case1" data-name="double case1" xmlns="http://www.w3.org/2000/svg"
    xmlns:xlink="http://www.w3.org/1999/xlink" viewBox="0 0 127.02 29.15">
    <defs>
        <radialGradient id="zooSwatch" cx="-7.42" cy="-106.36" r="15.45" gradientUnits="userSpaceOnUse">
            <stop offset="0" stop-color="#1fc3ff" />
            <stop offset="1" stop-color="#6d8fff" />
        </radialGradient>
    </defs>
    <path d="M7.83-120.18l1.59,1.71-20.79,23.6h20v2.42H-16.9Zm-5.95-.1L-22.66-92.56l-1.6-1.71,20.64-23.59H-23.45v-2.42Z"
        transform="translate(24.26 120.66)" style="fill:url(#zooSwatch)" />
    <path
        d="M16.31-103.64v-1.78h6.84v1.78Zm1.29,8.12L16.31-96.8l5.54-8.2,1.3,1.36Zm-1.29.5V-96.8h7V-95Zm14.84-6.86a3.27,3.27,0,0,0-2.6-1.05,3.3,3.3,0,0,0-2.6,1.05,4.38,4.38,0,0,0-.92,3,4.43,4.43,0,0,0,.92,3,3.3,3.3,0,0,0,2.6,1.05,3.27,3.27,0,0,0,2.6-1.05,4.38,4.38,0,0,0,.93-3A4.33,4.33,0,0,0,31.15-101.88ZM29.6-97.32a1.17,1.17,0,0,1-1,.56,1.2,1.2,0,0,1-1-.56,2.83,2.83,0,0,1-.38-1.59,2.82,2.82,0,0,1,.38-1.58,1.16,1.16,0,0,1,1-.56,1.16,1.16,0,0,1,1.05.56A2.82,2.82,0,0,1,30-98.91,2.83,2.83,0,0,1,29.6-97.32Zm10.34-4.56a3.27,3.27,0,0,0-2.6-1.05,3.28,3.28,0,0,0-2.6,1.05,4.38,4.38,0,0,0-.92,3,4.43,4.43,0,0,0,.92,3,3.28,3.28,0,0,0,2.6,1.05,3.27,3.27,0,0,0,2.6-1.05,4.38,4.38,0,0,0,.93-3A4.33,4.33,0,0,0,39.94-101.88Zm-1.55,4.56a1.17,1.17,0,0,1-1,.56,1.19,1.19,0,0,1-1.05-.56,2.83,2.83,0,0,1-.38-1.59,2.82,2.82,0,0,1,.38-1.58,1.15,1.15,0,0,1,1-.56,1.16,1.16,0,0,1,1,.56,2.82,2.82,0,0,1,.37,1.58A2.83,2.83,0,0,1,38.39-97.32ZM42.64-95v-10.4h1.93V-95ZM43-99.31v-1.79h6.4v1.79ZM47.69-95v-10.4h1.94V-95Zm6,.14a2.84,2.84,0,0,1-1.93-.6,2.2,2.2,0,0,1-.69-1.73,2.35,2.35,0,0,1,.91-2,4.05,4.05,0,0,1,2.55-.7,7,7,0,0,1,1.1.07,6.71,6.71,0,0,1,1,.2l-.33,1.55a4,4,0,0,0-.84-.13l-.78,0c-1,0-1.54.29-1.54.88a.68.68,0,0,0,.28.6,1.31,1.31,0,0,0,.81.21,2.21,2.21,0,0,0,1.08-.24,1.74,1.74,0,0,0,.65-.61,1.57,1.57,0,0,0,.21-.77v-.49l.28,2h-.62l.25-.24a2.18,2.18,0,0,1-.3,1.13,1.73,1.73,0,0,1-.81.67A3,3,0,0,1,53.72-94.88Zm2.63-.07-.17-2.3,0-1v-1.52a1,1,0,0,0-.53-.91A3.64,3.64,0,0,0,54-101l-2,0,.14-1.8,1.7,0A5.2,5.2,0,0,1,57-102a2.82,2.82,0,0,1,1,2.34v2.87l1.07.16V-95ZM59.78-95v-1.7h5.43V-95Zm.29-6.07v-1.7H63l.15,1.7ZM61.42-95v-7.77H63.1l.29,2.23V-95Zm2-3.34L62.94-101h.67a1.78,1.78,0,0,1,2-1.89,2,2,0,0,1,1.7.81,4,4,0,0,1,.59,2.34h-2a1.53,1.53,0,0,0-.26-1,1,1,0,0,0-.81-.3,1.16,1.16,0,0,0-1.09.71A4.47,4.47,0,0,0,63.39-98.36ZM68.8-95v-7.77h1.78l.18,1.64V-95Zm3,0v-5.41c0-.44-.16-.66-.47-.66s-.55.29-.55.87l-.46-1.6h.56A1.11,1.11,0,0,1,72-102.93a1.07,1.07,0,0,1,.89.41,2.1,2.1,0,0,1,.32,1.27V-95Zm2.47,0v-5.26c0-.54-.16-.81-.47-.81s-.53.29-.53.87l-.52-1.6h.65a1.27,1.27,0,0,1,.41-.82,1.32,1.32,0,0,1,.9-.29,1.39,1.39,0,0,1,1.14.43,2.11,2.11,0,0,1,.37,1.4V-95Zm9.64-6.86a3.28,3.28,0,0,0-2.6-1.05,3.27,3.27,0,0,0-2.6,1.05,4.33,4.33,0,0,0-.93,3,4.38,4.38,0,0,0,.93,3,3.27,3.27,0,0,0,2.6,1.05,3.28,3.28,0,0,0,2.6-1.05,4.43,4.43,0,0,0,.92-3A4.38,4.38,0,0,0,83.89-101.88Zm-1.55,4.56a1.2,1.2,0,0,1-1,.56,1.21,1.21,0,0,1-1.06-.56,2.83,2.83,0,0,1-.37-1.59,2.82,2.82,0,0,1,.37-1.58,1.18,1.18,0,0,1,1.05-.56,1.18,1.18,0,0,1,1,.56,2.82,2.82,0,0,1,.37,1.58A2.83,2.83,0,0,1,82.34-97.32ZM86.79-95v-7.77h1.77l.21,1.64V-95Zm4.59,0v-4.57a1.76,1.76,0,0,0-.29-1.08,1,1,0,0,0-.82-.38c-1,0-1.5.72-1.5,2.15l-.45-2.48H89a1.89,1.89,0,0,1,.54-1.17,1.84,1.84,0,0,1,1.29-.38,2.45,2.45,0,0,1,1.9.74,3,3,0,0,1,.68,2.11V-95Zm6,0-2.61-7.77h2.1l1.93,6.08h.35V-95ZM94.9-91.51l-.08-1.72,1.34-.15a2.93,2.93,0,0,0,1.18-.36,2.39,2.39,0,0,0,.84-.86,6.17,6.17,0,0,0,.61-1.48l1.87-6.71h2.1l-2.18,7.08a8.81,8.81,0,0,1-1,2.25,3.73,3.73,0,0,1-1.36,1.27,4.89,4.89,0,0,1-1.87.54Z"
        transform="translate(24.26 120.66)" style="fill:#fff" />
    <path
        d="M15.72-116.69V-118h5.34v1.34Zm1.36,1.58v-4.64h1.45v4.64Zm2.78,2.88a3.12,3.12,0,0,1-2.12-.59,2.41,2.41,0,0,1-.66-1.89v-.74h1.45v.6a1.2,1.2,0,0,0,.34.95,1.69,1.69,0,0,0,1.1.29l.53,0,.64-.08.13,1.36a6,6,0,0,1-.69.1Q20.25-112.23,19.86-112.23Zm2.36-.11v-1.24h4v1.24Zm.21-4.44V-118h2.15l.11,1.25Zm1,4.44V-118h1.23l.22,1.63v4.06Zm1.45-2.44-.33-2H25a1.32,1.32,0,0,1,1.46-1.39,1.42,1.42,0,0,1,1.24.6,2.89,2.89,0,0,1,.44,1.72H26.71a1.17,1.17,0,0,0-.18-.73.78.78,0,0,0-.6-.22.85.85,0,0,0-.8.52A3.36,3.36,0,0,0,24.87-114.78Zm5.57,2.44L28.53-118h1.54l1.41,4.46h.26v1.23Zm-1.81,2.58L28.58-111l1-.11a2.23,2.23,0,0,0,.87-.27A1.65,1.65,0,0,0,31-112a4.53,4.53,0,0,0,.45-1.09L32.86-118H34.4l-1.6,5.19a6.39,6.39,0,0,1-.74,1.65,2.85,2.85,0,0,1-1,.94,3.93,3.93,0,0,1-1.38.39ZM42-112.34v-1.34h2.21v1.34Zm.32-4.35V-118h3.24v1.34Zm2.45-2.11a.9.9,0,0,1-.67-.25.9.9,0,0,1-.26-.68.88.88,0,0,1,.26-.67.9.9,0,0,1,.67-.26.92.92,0,0,1,.67.26.92.92,0,0,1,.26.67.94.94,0,0,1-.26.68A.91.91,0,0,1,44.75-118.8Zm-.66,6.46v-5.37h1.45v5.37Zm1.34,0v-1.34h1.79v1.34Zm2.51-4.35V-118h5.34v1.34Zm1.37,1.58v-4.64h1.45v4.64Zm2.78,2.88a3.17,3.17,0,0,1-2.13-.59,2.44,2.44,0,0,1-.65-1.89v-.74h1.45v.6a1.23,1.23,0,0,0,.33.95,1.72,1.72,0,0,0,1.11.29l.53,0,.64-.08.13,1.36a6,6,0,0,1-.69.1Q52.47-112.23,52.09-112.23Z"
        transform="translate(24.26 120.66)" style="fill:#fff" />

</svg>