<svg xmlns="http://www.w3.org/2000/svg" xmlns:xlink="http://www.w3.org/1999/xlink" viewBox="0 0 96.82 96.82"><defs><style>.cls-1,.cls-2{stroke:#00080c;stroke-miterlimit:10;}.cls-1{stroke-width:2px;fill:url(#New_Gradient_Swatch);}.cls-2{fill:#131313;}.cls-3{fill:url(#New_Gradient_Swatch-2);}.cls-4{fill:url(#New_Gradient_Swatch-3);}.cls-5{fill:url(#New_Gradient_Swatch-4);}</style><linearGradient id="New_Gradient_Swatch" x1="1" y1="49.59" x2="95.82" y2="49.59" gradientTransform="matrix(1, 0, 0, -1, 0, 98)" gradientUnits="userSpaceOnUse"><stop offset="0" stop-color="#ffe53b"/><stop offset="1" stop-color="#ff2525"/></linearGradient><linearGradient id="New_Gradient_Swatch-2" x1="17" y1="49.56" x2="79" y2="49.56" gradientTransform="matrix(1, 0, 0, 1, 0, 0)" xlink:href="#New_Gradient_Swatch"/><linearGradient id="New_Gradient_Swatch-3" x1="31.31" y1="59.1" x2="40.85" y2="59.1" gradientTransform="matrix(1, 0, 0, 1, 0, 0)" xlink:href="#New_Gradient_Swatch"/><linearGradient id="New_Gradient_Swatch-4" x1="55.15" y1="59.1" x2="64.69" y2="59.1" gradientTransform="matrix(1, 0, 0, 1, 0, 0)" xlink:href="#New_Gradient_Swatch"/></defs><title>github</title><g id="Layer_2" data-name="Layer 2"><g id="Layer_1-2" data-name="Layer 1"><circle class="cls-1" cx="48.41" cy="48.41" r="47.41"/><circle class="cls-2" cx="48.41" cy="48.41" r="40.68"/><path class="cls-3" d="M73.93,37.71a19.68,19.68,0,0,0,1-6.26A18,18,0,0,0,73,23.33a16.16,16.16,0,0,0-7,1.45,38.78,38.78,0,0,0-7,4.51A44.44,44.44,0,0,0,48.6,28.1a49.54,49.54,0,0,0-11.52,1.3,39.86,39.86,0,0,0-7-4.6A16.17,16.17,0,0,0,23,23.33a18,18,0,0,0-1.9,8.12,20.18,20.18,0,0,0,1,6.34A21.88,21.88,0,0,0,17,52.54q0,7.76,2.31,12.34a15.62,15.62,0,0,0,3.2,4.28,16.58,16.58,0,0,0,4.51,3,39.16,39.16,0,0,0,5.11,1.92,32.49,32.49,0,0,0,5.68,1.11c2.07.24,3.91.4,5.5.47s3.35.11,5.29.11c2.28,0,4.35-.05,6.22-.17a55.21,55.21,0,0,0,6.39-.81A32.34,32.34,0,0,0,67.54,73a20.37,20.37,0,0,0,5.26-3.21,15.17,15.17,0,0,0,3.93-5Q79,60.26,79,52.54A22.11,22.11,0,0,0,73.93,37.71ZM69.46,64.82a10.53,10.53,0,0,1-3,3.84,14.36,14.36,0,0,1-4.54,2.23A27.09,27.09,0,0,1,56.68,72a54.75,54.75,0,0,1-5.55.26H44.87A54.75,54.75,0,0,1,39.32,72a27.09,27.09,0,0,1-5.22-1.1,14.36,14.36,0,0,1-4.54-2.23,10.53,10.53,0,0,1-3-3.84,12.85,12.85,0,0,1-1.19-5.72,11.54,11.54,0,0,1,2.57-7.6,8.51,8.51,0,0,1,7-3.13,72,72,0,0,1,7.27.78,41.94,41.94,0,0,0,11.7,0q5.74-.78,7.27-.78a8.51,8.51,0,0,1,7,3.13,11.54,11.54,0,0,1,2.57,7.6A12.82,12.82,0,0,1,69.46,64.82Z"/><path class="cls-4" d="M38.78,53.21a3.51,3.51,0,0,0-5.4,0A7.37,7.37,0,0,0,31.77,56a10.77,10.77,0,0,0-.46,3.06,10.65,10.65,0,0,0,.46,3A7.34,7.34,0,0,0,33.38,65a3.52,3.52,0,0,0,5.4,0,7.32,7.32,0,0,0,1.6-2.84,10.68,10.68,0,0,0,.47-3A10.79,10.79,0,0,0,40.38,56,7.35,7.35,0,0,0,38.78,53.21Z"/><path class="cls-5" d="M62.62,53.21a3.51,3.51,0,0,0-5.4,0A7.35,7.35,0,0,0,55.62,56a10.79,10.79,0,0,0-.47,3.06,10.68,10.68,0,0,0,.47,3A7.32,7.32,0,0,0,57.22,65a3.52,3.52,0,0,0,5.4,0,7.34,7.34,0,0,0,1.61-2.84,10.65,10.65,0,0,0,.46-3A10.77,10.77,0,0,0,64.23,56,7.37,7.37,0,0,0,62.62,53.21Z"/></g></g></svg>