<svg xmlns="http://www.w3.org/2000/svg" xmlns:xlink="http://www.w3.org/1999/xlink" viewBox="0 0 96.82 96.82"><defs><style>.a{stroke:#131313;stroke-width:2px;fill:url(#a);}.a,.b{stroke-miterlimit:10;}.b{fill:#00080c;stroke:#00080c;}.c{fill:url(#b);}.d{fill:url(#c);}.e{fill:url(#d);}</style><linearGradient id="a" x1="1" y1="48.41" x2="95.82" y2="48.41" gradientTransform="translate(13.32 -10.37) rotate(14.16)" gradientUnits="userSpaceOnUse"><stop offset="0" stop-color="#ffe53b"/><stop offset="1" stop-color="#ff2525"/></linearGradient><linearGradient id="b" x1="24.93" y1="49.26" x2="71.97" y2="49.26" gradientTransform="matrix(1, 0, 0, 1, 0, 0)" xlink:href="#a"/><linearGradient id="c" x1="36.37" y1="49.26" x2="60.53" y2="49.26" gradientTransform="matrix(1, 0, 0, 1, 0, 0)" xlink:href="#a"/><linearGradient id="d" x1="58.18" y1="36.71" x2="63.83" y2="36.71" gradientTransform="matrix(1, 0, 0, 1, 0, 0)" xlink:href="#a"/></defs><title>instagram_grn</title><circle class="a" cx="48.41" cy="48.41" r="47.41" transform="translate(-10.37 13.32) rotate(-14.16)"/><circle class="b" cx="48.41" cy="48.41" r="40.68"/><path class="c" d="M48.45,30c6.28,0,7,0,9.5.14a12.68,12.68,0,0,1,4.37.81A7.18,7.18,0,0,1,65,32.69a7.31,7.31,0,0,1,1.76,2.7,13.2,13.2,0,0,1,.81,4.37c.11,2.48.13,3.22.13,9.5s0,7-.13,9.5a13.2,13.2,0,0,1-.81,4.37,7.77,7.77,0,0,1-4.47,4.47,13.2,13.2,0,0,1-4.37.81c-2.48.11-3.22.13-9.5.13s-7,0-9.5-.13a13.2,13.2,0,0,1-4.37-.81,7.31,7.31,0,0,1-2.7-1.76,7.18,7.18,0,0,1-1.76-2.71,12.68,12.68,0,0,1-.81-4.37c-.12-2.48-.14-3.22-.14-9.5s0-7,.14-9.5a12.68,12.68,0,0,1,.81-4.37,7.81,7.81,0,0,1,4.46-4.46A12.68,12.68,0,0,1,39,30.12c2.48-.12,3.22-.14,9.5-.14m0-4.24c-6.39,0-7.19,0-9.7.14A17.22,17.22,0,0,0,33,27a12,12,0,0,0-6.87,6.87,17.22,17.22,0,0,0-1.1,5.71c-.11,2.51-.14,3.31-.14,9.7s0,7.19.14,9.7a17.22,17.22,0,0,0,1.1,5.71,11.45,11.45,0,0,0,2.71,4.16A11.69,11.69,0,0,0,33,71.55a17.51,17.51,0,0,0,5.71,1.09c2.51.11,3.31.14,9.7.14s7.19,0,9.7-.14a17.51,17.51,0,0,0,5.71-1.09,12.13,12.13,0,0,0,6.88-6.88A17.51,17.51,0,0,0,71.83,59c.11-2.51.14-3.31.14-9.7s0-7.19-.14-9.7a17.51,17.51,0,0,0-1.09-5.71A11.69,11.69,0,0,0,68,29.69,11.45,11.45,0,0,0,63.86,27a17.22,17.22,0,0,0-5.71-1.1c-2.51-.11-3.31-.14-9.7-.14"/><path class="d" d="M48.45,37.18A12.08,12.08,0,1,0,60.53,49.26,12.08,12.08,0,0,0,48.45,37.18m0,19.92a7.84,7.84,0,1,1,7.84-7.84,7.84,7.84,0,0,1-7.84,7.84"/><path class="e" d="M63.83,36.71A2.83,2.83,0,1,1,61,33.88a2.83,2.83,0,0,1,2.82,2.83"/></svg>