<svg xmlns="http://www.w3.org/2000/svg" xmlns:xlink="http://www.w3.org/1999/xlink" viewBox="0 0 96.82 96.82"><defs><style>.a,.b{stroke:#00080c;stroke-miterlimit:10;}.a{stroke-width:2px;fill:url(#a);}.b{fill:#00080c;}.c{fill:url(#b);}.d{fill:url(#c);}.e{fill:url(#d);}</style><linearGradient id="a" x1="1" y1="48.41" x2="95.82" y2="48.41" gradientTransform="translate(13.32 -10.37) rotate(14.16)" gradientUnits="userSpaceOnUse"><stop offset="0" stop-color="#ffe53b"/><stop offset="1" stop-color="#ff2525"/></linearGradient><linearGradient id="b" x1="29.14" y1="54.43" x2="38.02" y2="54.43" gradientTransform="matrix(1, 0, 0, 1, 0, 0)" xlink:href="#a"/><linearGradient id="c" x1="28.29" y1="31.04" x2="38.79" y2="31.04" gradientTransform="matrix(1, 0, 0, 1, 0, 0)" xlink:href="#a"/><linearGradient id="d" x1="43.7" y1="53.99" x2="71.29" y2="53.99" gradientTransform="matrix(1, 0, 0, 1, 0, 0)" xlink:href="#a"/></defs><title>linkedin_grn</title><circle class="a" cx="48.41" cy="48.41" r="47.41" transform="translate(-10.37 13.32) rotate(-14.16)"/><circle class="b" cx="48.41" cy="48.41" r="40.68" transform="translate(-7.21 88.32) rotate(-80.66)"/><rect class="c" x="29.14" y="40.09" width="8.88" height="28.68"/><path class="d" d="M33.54,36.34A5.3,5.3,0,1,0,28.29,31,5.28,5.28,0,0,0,33.54,36.34Z"/><path class="e" d="M52.21,53.72c0-4,1.86-6.44,5.41-6.44,3.26,0,4.83,2.31,4.83,6.44v15h8.84V50.61c0-7.68-4.35-11.39-10.44-11.39A10,10,0,0,0,52.21,44V40.09H43.7V68.77h8.51Z"/></svg>