<svg xmlns="http://www.w3.org/2000/svg" xmlns:xlink="http://www.w3.org/1999/xlink" viewBox="0 0 96.82 96.82"><defs><style>.a{stroke:#131313;stroke-width:2px;fill:url(#a);}.a,.b{stroke-miterlimit:10;}.b{fill:#131313;stroke:#00080c;}.c{fill:url(#b);}.d{fill:url(#c);}.e{fill:url(#d);}.f{fill:url(#e);}.g{fill:url(#f);}.h{fill:url(#g);}</style><linearGradient id="a" x1="1" y1="48.41" x2="95.82" y2="48.41" gradientUnits="userSpaceOnUse"><stop offset="0" stop-color="#ffe53b"/><stop offset="1" stop-color="#ff2525"/></linearGradient><linearGradient id="b" x1="54.41" y1="35.19" x2="62.15" y2="35.19" xlink:href="#a"/><linearGradient id="c" x1="44.24" y1="35.16" x2="52.11" y2="35.16" xlink:href="#a"/><linearGradient id="d" x1="34.15" y1="32.49" x2="44.38" y2="32.49" xlink:href="#a"/><linearGradient id="e" x1="27.63" y1="59.76" x2="72.02" y2="59.76" xlink:href="#a"/><linearGradient id="f" x1="62.99" y1="58.88" x2="65.27" y2="58.88" xlink:href="#a"/><linearGradient id="g" x1="53.57" y1="62.24" x2="55.73" y2="62.24" xlink:href="#a"/></defs><title>youtube_grn</title><circle class="a" cx="48.41" cy="48.41" r="47.41"/><circle class="b" cx="48.41" cy="48.41" r="40.68"/><path class="c" d="M56.31,42.58a4.25,4.25,0,0,0,3.13-1.82v1.61h2.71V27.79H59.44V38.86c-.33.41-1.07,1.09-1.59,1.09s-.73-.39-.73-1V27.79H54.41V40C54.41,41.42,54.85,42.58,56.31,42.58Z"/><path class="d" d="M44.24,38.73c0,2.57,1.35,3.91,4,3.91a3.71,3.71,0,0,0,3.89-3.91V31.59a3.81,3.81,0,0,0-3.89-3.92,3.74,3.74,0,0,0-4,3.92ZM47,31.83c0-.8.37-1.39,1.13-1.39s1.19.57,1.19,1.39v6.78c0,.8-.4,1.38-1.13,1.38A1.23,1.23,0,0,1,47,38.61Z"/><polygon class="e" points="37.78 42.37 40.83 42.37 40.83 34.35 44.38 22.61 41.28 22.61 39.33 30.51 37.22 22.61 34.15 22.61 37.78 34.35 37.78 42.37"/><path class="f" d="M65.8,45.69H33.85a6.22,6.22,0,0,0-6.22,6.22v15.7a6.22,6.22,0,0,0,6.22,6.21H65.8A6.22,6.22,0,0,0,72,67.61V51.91A6.22,6.22,0,0,0,65.8,45.69ZM38.11,69.17H35.2V53.08h-3V50.35h8.92v2.73h-3Zm10.34,0H45.87V67.64a6,6,0,0,1-1.49,1.29c-1.39.8-3.3.78-3.3-2V55.29h2.58V65.93c0,.56.14.93.69.93s1.2-.64,1.52-1V55.29h2.58Zm9.94-2.88c0,1.72-.65,3.06-2.36,3.06a3,3,0,0,1-2.46-1.25v1.07H51V50.35h2.6v6.06a3.11,3.11,0,0,1,2.3-1.3c1.89,0,2.52,1.6,2.52,3.48Zm9.54-3.74H63v2.62c0,1,.09,1.94,1.13,1.94s1.15-.73,1.15-1.94v-1h2.66v1c0,2.68-1.15,4.3-3.87,4.3-2.47,0-3.73-1.8-3.73-4.3V59a3.81,3.81,0,0,1,3.92-4.08c2.48,0,3.68,1.57,3.68,4.08Z"/><path class="g" d="M64.14,57.37c-1,0-1.15.67-1.15,1.62V60.4h2.28V59C65.27,58.05,65.07,57.37,64.14,57.37Z"/><path class="h" d="M54.11,57.45a1.84,1.84,0,0,0-.54.42v8.66a2.51,2.51,0,0,0,.61.49,1.09,1.09,0,0,0,1.32-.15,1.56,1.56,0,0,0,.23-1V58.75a1.77,1.77,0,0,0-.28-1.07A1.06,1.06,0,0,0,54.11,57.45Z"/></svg>