<?xml version="1.0" standalone="no"?>
<!DOCTYPE svg PUBLIC "-//W3C//DTD SVG 20010904//EN"
 "http://www.w3.org/TR/2001/REC-SVG-20010904/DTD/svg10.dtd">
<svg version="1.0" 
    xmlns="http://www.w3.org/2000/svg" width="1760.000000pt" height="1760.000000pt" viewBox="0 0 1760.000000 1760.000000" preserveAspectRatio="xMidYMid meet">
    <metadata>
Created by delgoplus.com 2017-2019
    </metadata>
    <g transform="translate(0.000000,1760.000000) scale(0.100000,-0.100000)" fill="#000000" stroke="none">
        <path d="M7290 17113 c-71 -122 -227 -442 -289 -596 -382 -944 -469 -1990
-255 -3042 155 -760 488 -1499 957 -2122 50 -67 96 -119 102 -115 25 15 683
478 786 552 100 73 348 264 434 334 l30 25 -35 38 c-20 21 -85 90 -145 153
-789 829 -1265 1595 -1505 2421 -110 380 -164 719 -183 1154 -13 279 44 789
127 1147 18 76 31 138 30 138 -1 0 -26 -39 -54 -87z"/>
        <path d="M10567 13554 c-60 -84 -138 -190 -174 -236 -332 -421 -776 -846
-1198 -1143 -38 -27 -108 -81 -155 -120 -187 -154 -417 -322 -995 -726 -393
-274 -676 -477 -815 -583 -602 -460 -986 -853 -1205 -1234 -55 -97 -55 -92 -4
-322 138 -623 366 -1143 994 -2260 530 -944 765 -1445 970 -2065 128 -385 239
-903 280 -1295 51 -495 46 -1140 -10 -1524 -45 -306 -143 -680 -251 -966 -24
-63 -44 -118 -44 -121 0 -4 46 4 103 18 474 112 1065 109 1495 -7 40 -11 74
-20 77 -20 3 0 -5 24 -16 53 -96 236 -201 607 -253 889 -44 239 -57 374 -66
713 -10 368 -1 634 30 920 l20 181 -59 145 c-117 288 -303 679 -458 963 -36
66 -173 300 -305 520 -367 612 -519 904 -637 1221 -255 688 -263 1504 -19
2175 42 116 128 303 195 424 137 249 473 720 713 1001 294 344 685 861 995
1314 359 525 623 1099 781 1691 46 173 127 541 121 546 -1 0 -51 -68 -110
-152z"/>
        <path d="M6265 11976 c-263 -140 -452 -282 -680 -510 -302 -302 -498 -589
-680 -994 -84 -188 -133 -330 -190 -557 -98 -385 -120 -571 -120 -990 1 -276
4 -338 22 -455 75 -474 208 -818 468 -1210 199 -299 412 -537 1051 -1175 291
-291 597 -606 677 -699 386 -442 650 -845 833 -1271 43 -99 80 -171 89 -173
31 -7 155 -453 209 -752 62 -343 81 -674 67 -1120 -15 -427 -47 -688 -129
-1037 -22 -90 -36 -163 -33 -163 10 0 129 307 172 440 87 272 157 599 196 920
25 205 25 933 0 1190 -50 507 -145 971 -293 1420 -195 600 -432 1106 -944
2020 -455 812 -619 1135 -787 1549 -179 443 -289 898 -324 1345 -15 192 -7
648 15 816 61 464 191 881 406 1299 44 85 79 156 77 157 -1 2 -47 -21 -102
-50z"/>
        <path d="M11250 11981 c43 -70 181 -358 228 -476 107 -268 196 -622 238 -937
22 -166 30 -622 15 -814 -51 -639 -247 -1263 -635 -2019 -119 -232 -241 -456
-476 -875 -536 -958 -799 -1532 -990 -2163 -119 -393 -212 -884 -252 -1332
-21 -235 -18 -961 5 -1140 39 -313 105 -623 188 -888 46 -149 145 -408 161
-422 8 -7 9 -4 4 9 -49 139 -124 541 -158 851 -17 159 -17 745 0 925 91 934
398 1696 975 2418 199 249 382 444 919 977 650 646 836 854 1043 1165 255 385
398 749 466 1190 26 171 37 580 20 785 -61 734 -308 1400 -720 1937 -134 174
-401 439 -571 564 -74 55 -164 119 -200 141 -71 44 -273 153 -283 153 -4 0 7
-22 23 -49z"/>
        <path d="M9685 11223 c-218 -312 -512 -696 -762 -996 -68 -82 -129 -156 -135
-166 -9 -14 5 -37 79 -132 595 -759 846 -1243 945 -1815 18 -109 22 -168 22
-379 1 -261 -6 -338 -50 -565 -49 -247 -161 -587 -292 -880 -90 -202 -315
-641 -501 -978 l-173 -313 85 -172 c47 -95 125 -242 173 -327 103 -183 151
-284 228 -480 32 -80 61 -149 66 -153 4 -5 10 16 14 45 21 159 121 590 193
833 59 202 190 558 291 795 159 371 352 752 680 1340 406 727 551 1004 685
1305 175 393 299 777 357 1102 l22 122 -103 133 c-389 499 -789 948 -1246
1398 -230 227 -455 440 -464 440 -3 0 -54 -71 -114 -157z"/>
        <path d="M4152 7757 c-69 -324 -132 -691 -154 -907 -20 -188 -16 -673 5 -829
83 -593 267 -1019 645 -1494 142 -178 534 -568 852 -848 710 -625 946 -854
1226 -1189 433 -518 740 -1090 918 -1713 24 -81 45 -150 49 -153 8 -9 81 224
122 392 42 168 87 432 110 634 23 204 36 695 24 924 -20 423 -92 830 -210
1192 l-39 121 -42 12 c-128 39 -388 170 -513 259 -325 232 -590 563 -794 994
-111 232 -224 548 -292 813 l-33 129 -241 241 c-247 246 -470 497 -655 738
-58 75 -108 133 -111 129 -21 -22 -80 -498 -100 -797 -14 -210 -6 -733 15
-920 7 -66 11 -122 8 -125 -5 -6 -28 22 -127 151 -254 332 -431 697 -540 1114
-75 285 -104 510 -114 880 -4 143 -8 257 -9 252z"/>
        <path d="M13441 7590 c-2 -408 -46 -728 -147 -1077 -102 -354 -262 -672 -491
-976 -50 -67 -102 -135 -115 -151 l-25 -29 5 366 c5 384 -4 602 -38 942 -16
155 -61 471 -73 509 -2 5 -48 -51 -104 -125 -153 -204 -371 -449 -639 -716
l-243 -243 -41 -157 c-130 -503 -342 -969 -589 -1297 -245 -326 -557 -564
-930 -710 l-104 -41 -39 -110 c-97 -273 -185 -698 -230 -1115 -17 -156 -17
-720 0 -875 29 -260 84 -571 137 -775 33 -125 116 -380 124 -380 3 0 21 55 40
122 149 536 418 1080 757 1529 301 398 585 686 1279 1294 708 621 970 899
1215 1290 222 355 346 711 407 1170 21 161 24 640 5 815 -27 243 -100 676
-146 860 -14 53 -14 50 -15 -120z"/>
        <path d="M12580 4037 c-85 -84 -272 -255 -415 -381 -143 -126 -266 -235 -274
-242 -13 -11 -11 -16 12 -35 56 -43 57 -49 57 -414 l0 -335 335 0 336 0 24
-24 c27 -27 49 -97 40 -129 -31 -110 -20 -107 -410 -107 l-325 0 0 -333 c0
-325 -1 -334 -22 -377 -30 -58 -68 -71 -124 -44 -21 11 -47 32 -58 47 -20 27
-21 43 -24 368 l-3 339 -320 0 c-266 0 -325 3 -349 15 -38 20 -53 48 -60 113
l-5 53 -86 -103 c-132 -158 -237 -299 -343 -460 -98 -150 -252 -421 -289 -511
l-21 -50 81 -76 c71 -67 144 -114 644 -410 378 -224 587 -342 634 -358 103
-35 220 -48 313 -35 135 19 200 46 389 161 618 375 926 568 984 614 123 101
230 272 277 445 l27 97 -3 725 c-4 777 -5 794 -56 922 -41 101 -88 169 -181
263 -77 78 -117 107 -280 207 -269 164 -343 208 -347 208 -2 0 -73 -69 -158
-153z"/>
        <path d="M11585 3143 c-77 -69 -225 -212 -329 -317 l-189 -191 328 -3 c180 -1
330 -1 332 1 2 2 2 146 1 320 l-3 316 -140 -126z"/>
        <path d="M8435 976 c-139 -17 -372 -60 -450 -84 -43 -13 -63 -25 -72 -43 -7
-13 -47 -96 -90 -184 -42 -88 -79 -163 -81 -166 -5 -10 160 -102 330 -183 255
-122 600 -239 708 -239 138 0 640 188 938 352 72 40 132 76 132 80 0 8 -126
249 -166 319 -14 24 -37 48 -52 53 -55 21 -260 68 -367 85 -148 22 -673 28
-830 10z"/>
    </g>
</svg>
